<svg width="216" height="41" viewBox="0 0 216 41" fill="none" xmlns="http://www.w3.org/2000/svg">
<path fill-rule="evenodd" clip-rule="evenodd" d="M12.7245 23.6658V19.3291L0.0240539 23.785H0V28.2351H0.0240539L12.7245 32.691V28.3487L6.21193 25.9987L12.7245 23.6601V23.6658Z" fill="#F7DD43"/>
<path fill-rule="evenodd" clip-rule="evenodd" d="M86.2875 32.4754V28.1388L92.7941 25.8058L86.2875 23.4729V19.1362L98.97 23.5921H99V28.048H98.97L86.2875 32.4811V32.4754ZM80.8393 13.0002L73.3826 35.5974H77.8085L85.2652 13.0002H80.8393Z" fill="#F7DD43"/>
<path d="M119.135 40.548C114.854 40.548 110.357 39.7368 106.832 37.7833V3.3169C110.302 1.41861 114.799 0.552279 119.135 0.552279C123.471 0.552279 127.862 1.3634 131.327 3.3169V16.5412H122.6V7.54239C121.573 7.10923 120.324 6.94785 119.08 6.94785C117.836 6.94785 116.693 7.10923 115.61 7.54239V33.5579C116.638 33.991 117.831 34.1524 119.08 34.1524C120.328 34.1524 121.518 33.991 122.6 33.5579V24.5633H131.327V37.7876C127.913 39.6859 123.416 40.497 119.135 40.5522V40.548Z" fill="#F7DD43"/>
<path d="M147.695 40.5479C143.087 40.5479 138.645 39.5712 135.12 37.5667V3.47821C138.59 1.52896 143.036 0.552216 147.695 0.552216C152.353 0.552216 156.689 1.47376 160.159 3.47821V37.5667C156.744 39.5712 152.247 40.4927 147.695 40.5479ZM151.436 7.65274C150.408 7.21958 149.16 7.003 147.644 7.003C146.128 7.003 144.934 7.21958 143.902 7.65274V33.3964C144.93 33.8848 146.178 34.1014 147.644 34.1014C149.109 34.1014 150.353 33.8848 151.436 33.3964V7.65274Z" fill="#F7DD43"/>
<path d="M175.387 25.9137H173.056V40.0596H164.223V1.04061H175.387C180.7 1.04061 184.709 2.12353 187.851 4.34457V22.6097C184.764 24.7798 180.696 25.9137 175.387 25.9137ZM179.073 7.75894C178.262 7.1644 177.175 6.89261 175.332 6.89261H172.945V20.0617H175.332C177.12 20.0617 178.203 19.7899 179.073 19.2506V7.75894Z" fill="#F7DD43"/>
<path d="M206.329 40.0595V25.9137H199.827V40.0595H191.049V3.423C194.247 1.52472 198.744 0.552216 203.08 0.552216C207.416 0.552216 211.858 1.52896 215.056 3.423V40.0595H206.329ZM206.329 7.32575C205.407 6.89258 204.269 6.676 203.076 6.676C201.883 6.676 200.745 6.89258 199.823 7.32575V19.7347H206.325V7.32575H206.329Z" fill="#F7DD43"/>
<path d="M25.425 15.5C25.375 16.0333 25.3333 16.5833 25.3 17.15C25.2833 17.7 25.2667 18.3167 25.25 19C25.25 19.6667 25.2417 20.4167 25.225 21.25C25.225 22.0833 25.225 23.0333 25.225 24.1C25.225 25.1 25.225 26.0083 25.225 26.825C25.225 27.625 25.225 28.375 25.225 29.075C25.2417 29.775 25.25 30.4417 25.25 31.075C25.2667 31.7083 25.2833 32.35 25.3 33H21.775C21.7917 32.2 21.8083 31.5 21.825 30.9C21.8583 30.2833 21.8833 29.65 21.9 29C21.9167 28.3333 21.9333 27.575 21.95 26.725C21.9667 25.875 21.975 24.8083 21.975 23.525C21.975 22.2417 21.9667 20.9667 21.95 19.7C21.9333 18.4167 21.9 17.1 21.85 15.75L25.425 15.5ZM40.6777 17.95H35.7277C35.6944 18.7333 35.6777 19.6167 35.6777 20.6C35.6777 21.5667 35.6777 22.7333 35.6777 24.1C35.6777 25.1 35.6777 26.0083 35.6777 26.825C35.6777 27.625 35.6777 28.375 35.6777 29.075C35.6944 29.775 35.7027 30.4417 35.7027 31.075C35.7194 31.7083 35.7361 32.35 35.7527 33H32.2277C32.2444 32.2 32.2611 31.5 32.2777 30.9C32.3111 30.2833 32.3361 29.65 32.3527 29C32.3694 28.3333 32.3861 27.575 32.4027 26.725C32.4194 25.875 32.4277 24.8083 32.4277 23.525C32.4277 22.5917 32.4277 21.6667 32.4277 20.75C32.4277 19.8333 32.4111 18.9 32.3777 17.95H27.4277V15.5H40.6777V17.95ZM45.9479 26.875C45.9479 27.5917 46.0395 28.2083 46.2229 28.725C46.4229 29.225 46.6812 29.6417 46.9979 29.975C47.3312 30.2917 47.7062 30.525 48.1229 30.675C48.5395 30.825 48.9645 30.9 49.3979 30.9C49.7645 30.9 50.1395 30.825 50.5229 30.675C50.9229 30.525 51.2895 30.2917 51.6229 29.975C51.9562 29.6417 52.2312 29.225 52.4479 28.725C52.6645 28.225 52.7812 27.625 52.7979 26.925C52.8145 26.425 52.8229 25.875 52.8229 25.275C52.8395 24.675 52.8479 23.9 52.8479 22.95C52.8479 21.75 52.8395 20.5667 52.8229 19.4C52.8062 18.2167 52.7729 17 52.7229 15.75L56.2979 15.5C56.2479 16 56.2062 16.5167 56.1729 17.05C56.1562 17.5667 56.1395 18.1417 56.1229 18.775C56.1229 19.3917 56.1145 20.0917 56.0979 20.875C56.0979 21.6417 56.0979 22.525 56.0979 23.525V26.775C56.0979 27.8083 55.9062 28.7333 55.5229 29.55C55.1562 30.35 54.6562 31.0333 54.0229 31.6C53.4062 32.15 52.6812 32.575 51.8479 32.875C51.0145 33.1583 50.1395 33.3 49.2229 33.3C48.3062 33.3 47.4479 33.15 46.6479 32.85C45.8479 32.55 45.1479 32.125 44.5479 31.575C43.9645 31.0083 43.4979 30.325 43.1479 29.525C42.8145 28.7083 42.6479 27.7917 42.6479 26.775C42.6479 26.2917 42.6562 25.75 42.6729 25.15C42.6895 24.5333 42.6979 23.8 42.6979 22.95C42.6979 21.75 42.6895 20.5667 42.6729 19.4C42.6562 18.2167 42.6229 17 42.5729 15.75L46.1479 15.5C46.0979 16 46.0562 16.5167 46.0229 17.05C46.0062 17.5667 45.9895 18.1417 45.9729 18.775C45.9562 19.3917 45.9479 20.0917 45.9479 20.875C45.9479 21.6417 45.9479 22.525 45.9479 23.525V26.875ZM64.6412 30.45C65.6912 30.45 66.4662 30.2667 66.9662 29.9C67.4829 29.5333 67.7412 29 67.7412 28.3C67.7412 27.8667 67.6495 27.5 67.4662 27.2C67.2829 26.9 67.0329 26.6417 66.7162 26.425C66.4162 26.2083 66.0579 26.025 65.6412 25.875C65.2412 25.7083 64.8245 25.55 64.3912 25.4C63.5912 25.1333 62.8662 24.8667 62.2162 24.6C61.5829 24.3333 61.0329 24.025 60.5662 23.675C60.1162 23.3083 59.7662 22.8667 59.5162 22.35C59.2662 21.8167 59.1412 21.1583 59.1412 20.375C59.1412 19.2917 59.3579 18.4167 59.7912 17.75C60.2412 17.0667 60.7995 16.5417 61.4662 16.175C62.1329 15.7917 62.8579 15.5417 63.6412 15.425C64.4412 15.2917 65.1829 15.225 65.8662 15.225C66.7329 15.225 67.5495 15.2917 68.3162 15.425C69.0995 15.5583 69.7829 15.6917 70.3662 15.825V18.725C69.5662 18.4917 68.7412 18.3 67.8912 18.15C67.0412 18 66.2662 17.925 65.5662 17.925C64.3662 17.925 63.4912 18.1417 62.9412 18.575C62.3912 18.9917 62.1162 19.5 62.1162 20.1C62.1162 20.55 62.2412 20.925 62.4912 21.225C62.7579 21.525 63.0745 21.7833 63.4412 22C63.8245 22.2167 64.2245 22.3917 64.6412 22.525C65.0745 22.6417 65.4662 22.75 65.8162 22.85C66.4162 23.0167 67.0162 23.225 67.6162 23.475C68.2162 23.7083 68.7579 24.025 69.2412 24.425C69.7412 24.825 70.1412 25.325 70.4412 25.925C70.7412 26.5083 70.8912 27.2333 70.8912 28.1C70.8912 28.9667 70.7329 29.725 70.4162 30.375C70.1162 31.025 69.6829 31.5667 69.1162 32C68.5662 32.4333 67.9079 32.7583 67.1412 32.975C66.3745 33.1917 65.5329 33.3 64.6162 33.3C63.8162 33.3 62.9162 33.2167 61.9162 33.05C60.9329 32.8833 59.9662 32.625 59.0162 32.275L58.9162 29.2C59.2162 29.35 59.5912 29.5 60.0412 29.65C60.4912 29.7833 60.9745 29.9167 61.4912 30.05C62.0245 30.1667 62.5579 30.2667 63.0912 30.35C63.6412 30.4167 64.1579 30.45 64.6412 30.45Z" fill="#F7DD43"/>
</svg>
